<?xml version="1.0" encoding="UTF-8"?>
<svg version="1.1" xmlns="http://www.w3.org/2000/svg" width="683" height="720">
<path d="M0 0 C5.13335543 3.22775247 9.49245917 7.14154394 13.75 11.44140625 C14.61625 12.26640625 15.4825 13.09140625 16.375 13.94140625 C17.550625 15.17890625 17.550625 15.17890625 18.75 16.44140625 C19.35328125 17.07304687 19.9565625 17.7046875 20.578125 18.35546875 C38.53445802 37.75104984 46.46632267 61.91429325 45.63671875 88.00390625 C44.1348893 104.21642653 37.88602281 121.38827594 29.75 135.44140625 C33.98034528 137.03205511 38.21364841 138.61243828 42.45703125 140.16796875 C64.43383912 148.29296245 85.1243545 158.05807826 103.75 172.44140625 C107.15153829 170.85940712 108.70871321 169.46504849 110.875 166.37890625 C125.02699275 147.65886521 147.30976761 134.34048282 170.41308594 130.73876953 C200.17591494 126.95156459 228.684309 138.16473925 252.04785156 156.08691406 C286.56189193 183.55161514 306.08746053 226.10737562 311.48828125 269.21484375 C312.00120958 275.53840795 312.16667258 279.92216593 308.75 285.44140625 C302.42990751 288.6014525 293.66118486 286.05111247 287.1875 284.31640625 C286.32616455 284.09194824 285.4648291 283.86749023 284.57739258 283.63623047 C270.69531683 279.92226151 257.58875229 274.87271749 244.75 268.44140625 C244.13946777 268.14008789 243.52893555 267.83876953 242.89990234 267.52832031 C229.31712044 260.77800272 217.03299812 252.36880769 205.40234375 242.64453125 C189.56703931 229.49120032 178.26363645 226.40647264 158.05859375 228.22265625 C157.29675781 228.29484375 156.53492188 228.36703125 155.75 228.44140625 C156.55050781 229.70017578 156.55050781 229.70017578 157.3671875 230.984375 C192.16523613 286.6928874 200.05371573 354.84460352 186.109375 418.359375 C178.54751618 450.93691793 165.79868741 483.81956315 146.89453125 511.578125 C145.57553347 513.36098111 145.57553347 513.36098111 145.75 515.44140625 C147.30898938 516.52998491 148.92600644 517.53574293 150.5625 518.50390625 C175.11906424 533.7535012 194.59344082 558.00912907 201.8203125 586.23828125 C207.91200186 612.42889777 204.25097847 639.23676248 192.1796875 663.18359375 C190.75 665.44140625 190.75 665.44140625 187.75 667.44140625 C182.1581781 668.00534455 178.11600108 666.70386783 173.1875 664.25390625 C172.46643066 663.90368408 171.74536133 663.55346191 171.00244141 663.19262695 C150.31303272 652.90037833 131.38674991 640.46806378 114.75 624.44140625 C113.45642578 623.25998047 113.45642578 623.25998047 112.13671875 622.0546875 C101.75353285 612.2851269 93.68241051 599.83510634 88.75 586.44140625 C88.75 585.45140625 88.75 584.46140625 88.75 583.44140625 C83.52382942 587.68308778 78.32266645 591.93417193 73.24145508 596.34863281 C64.82531897 603.62102066 55.86869576 610.08277549 46.75 616.44140625 C45.81099854 617.09641113 45.81099854 617.09641113 44.85302734 617.76464844 C43.09678657 618.98047035 41.3317642 620.18213086 39.5625 621.37890625 C38.98266357 621.77754883 38.40282715 622.17619141 37.80541992 622.58691406 C33.96469933 625.16332332 30.04191829 627.34516623 25.9140625 629.43359375 C14.06824818 635.10850101 14.06824818 635.10850101 6.3671875 645.12890625 C5.3516279 648.59890313 4.69665366 652.10880909 4.03125 655.66015625 C0.79116139 672.55989898 -9.92414614 688.92268968 -20.25 702.44140625 C-20.95125 703.364375 -21.6525 704.28734375 -22.375 705.23828125 C-24.25 707.44140625 -24.25 707.44140625 -27.25 709.44140625 C-31.30793392 709.34844098 -33.51392161 709.07683471 -36.62109375 706.39453125 C-48.97809491 690.22998531 -68.55853744 662.03227395 -67.25 640.44140625 C-67.93964844 640.18617188 -68.62929688 639.9309375 -69.33984375 639.66796875 C-79.60144073 635.34294667 -89.13302243 628.75652757 -98.25 622.44140625 C-98.89340332 621.99780762 -99.53680664 621.55420898 -100.19970703 621.09716797 C-113.90913968 611.62478779 -126.97721373 601.72974442 -139.25 590.44140625 C-143.22799353 586.25133084 -143.22799353 586.25133084 -148.25 584.44140625 C-148.5903125 585.3128125 -148.930625 586.18421875 -149.28125 587.08203125 C-155.45651414 602.25741439 -164.52852384 614.02838999 -176.25 625.44140625 C-176.68828125 625.92480469 -177.1265625 626.40820312 -177.578125 626.90625 C-192.427662 642.84325309 -222.80561548 664.89735321 -244.875 667.94140625 C-248.24967498 667.4414544 -249.8646909 666.89321184 -252.0703125 664.26953125 C-265.38500871 643.63616097 -267.30790381 611.96828055 -262.28125 588.5234375 C-258.02075445 570.7925061 -249.26597772 555.06564103 -237.25 541.44140625 C-236.50169922 540.49587891 -236.50169922 540.49587891 -235.73828125 539.53125 C-228.15974983 529.99836951 -215.76561299 519.5482288 -204.25 515.44140625 C-204.76046875 514.61382813 -205.2709375 513.78625 -205.796875 512.93359375 C-246.33137311 446.66049604 -262.67109919 372.05665402 -245.05566406 295.76123047 C-243.21216638 288.16490276 -240.93791707 280.77911997 -238.25 273.44140625 C-237.95367676 272.62913574 -237.65735352 271.81686523 -237.35205078 270.97998047 C-231.91474124 256.30290903 -225.58258433 242.0755353 -216.25 229.44140625 C-230.54949836 226.39664614 -241.91353702 226.54898011 -254.57421875 234.5234375 C-258.24409621 237.1539628 -261.61335299 240.09820048 -265.01757812 243.05615234 C-276.32693971 252.77370495 -289.05880105 260.55931992 -302.25 267.44140625 C-302.89984863 267.78268555 -303.54969727 268.12396484 -304.21923828 268.47558594 C-320.83855463 277.07533122 -348.07135678 290.50766283 -367.25 286.44140625 C-369.52734375 284.8828125 -369.52734375 284.8828125 -371.25 282.44140625 C-371.66693827 279.76809619 -371.82113096 277.60728428 -371.75 274.94140625 C-371.73646484 274.19511963 -371.72292969 273.44883301 -371.70898438 272.67993164 C-370.39771353 235.83855736 -352.16111714 198.04598849 -327.25 171.44140625 C-326.77095215 170.91998047 -326.2919043 170.39855469 -325.79833984 169.86132812 C-318.10255885 161.53790475 -309.60104813 154.81899114 -300.25 148.44140625 C-299.02603516 147.58095703 -299.02603516 147.58095703 -297.77734375 146.703125 C-276.06395768 132.49560078 -247.45183946 126.70125204 -222.0625 131.94140625 C-207.54357533 135.3511178 -195.46510094 142.8244396 -184.25 152.44140625 C-183.45287598 153.12106445 -183.45287598 153.12106445 -182.63964844 153.81445312 C-176.09009576 159.4577535 -170.23671831 165.330065 -165.25 172.44140625 C-161.08159949 170.12386042 -157.08777718 167.70702276 -153.16845703 164.9921875 C-135.95958645 153.11042987 -109.51758158 136.44140625 -88.25 136.44140625 C-88.75789063 135.55582031 -89.26578125 134.67023438 -89.7890625 133.7578125 C-102.55051817 111.00128353 -109.26124367 85.98846405 -103.2890625 60.0625 C-99.07351274 45.37146757 -92.13295653 32.13590267 -82.25 20.44140625 C-81.54488281 19.57902344 -80.83976562 18.71664063 -80.11328125 17.828125 C-58.2822516 -7.683508 -29.93460368 -17.88353042 0 0 Z M-114.25 174.44140625 C-115.27988037 174.94196533 -115.27988037 174.94196533 -116.33056641 175.45263672 C-136.56903458 185.42083746 -153.97432284 198.89903465 -170.25 214.44140625 C-170.80977539 214.97564209 -171.36955078 215.50987793 -171.94628906 216.06030273 C-203.43092416 246.76866377 -221.38610425 293.23602649 -225.25 336.44140625 C-225.41435547 338.27638672 -225.41435547 338.27638672 -225.58203125 340.1484375 C-227.81508959 369.05909945 -225.04129537 398.72247459 -216.25 426.44140625 C-215.2469869 427.66568666 -215.2469869 427.66568666 -213.23155212 427.56166077 C-211.9025161 427.55832985 -211.9025161 427.55832985 -210.54663086 427.55493164 C-209.04518776 427.55481834 -209.04518776 427.55481834 -207.51341248 427.55470276 C-206.4248848 427.54954147 -205.33635712 427.54438019 -204.21484375 427.5390625 C-203.10645645 427.53764755 -201.99806915 427.5362326 -200.85609436 427.53477478 C-197.29986931 427.52915658 -193.74370617 427.516601 -190.1875 427.50390625 C-187.78320403 427.49889359 -185.37890708 427.49433028 -182.97460938 427.49023438 C-177.06638496 427.47918124 -171.1581969 427.46242542 -165.25 427.44140625 C-165.25129882 426.80456406 -165.25259764 426.16772186 -165.25393581 425.51158142 C-165.28317455 409.99482766 -165.27372064 394.47864815 -165.22153378 378.9619751 C-165.19722306 371.45808509 -165.18586848 363.95459831 -165.20532227 356.45068359 C-165.2222509 349.9079875 -165.21455646 343.36585557 -165.17765242 336.8232336 C-165.15897249 333.36074869 -165.15238032 329.89921721 -165.17530632 326.43673706 C-165.20047709 322.56539697 -165.17065793 318.6955113 -165.13647461 314.82421875 C-165.1522908 313.68413864 -165.16810699 312.54405853 -165.18440247 311.36943054 C-165.06897101 304.56796547 -163.98725928 300.90407811 -159.08577824 296.08566284 C-158.47997142 295.54305817 -157.8741646 295.00045349 -157.25 294.44140625 C-155.21995372 292.46708058 -153.22849345 290.46815564 -151.25 288.44140625 C-151.25 287.78140625 -151.25 287.12140625 -151.25 286.44140625 C-150.59 286.44140625 -149.93 286.44140625 -149.25 286.44140625 C-149.25 285.78140625 -149.25 285.12140625 -149.25 284.44140625 C-148.321875 284.07015625 -148.321875 284.07015625 -147.375 283.69140625 C-144.89931313 282.23511986 -144.29874998 281.06328119 -143.25 278.44140625 C-142.59 278.44140625 -141.93 278.44140625 -141.25 278.44140625 C-139.76724969 276.96309514 -139.76724969 276.96309514 -138.21875 275.015625 C-135.4860099 271.79742666 -132.64701306 268.81467912 -129.59375 265.8984375 C-128.7996875 265.13466797 -128.005625 264.37089844 -127.1875 263.58398438 C-125.5402905 262.00936824 -123.88374692 260.44446761 -122.21875 258.88867188 C-121.435 258.12876953 -120.65125 257.36886719 -119.84375 256.5859375 C-118.77157227 255.57043823 -118.77157227 255.57043823 -117.67773438 254.53442383 C-115.96016183 252.49831643 -115.96016183 252.49831643 -116.51269531 249.81616211 C-116.75600586 249.03249268 -116.99931641 248.24882324 -117.25 247.44140625 C-118.01718406 239.35646649 -116.63776382 232.07171703 -111.5 225.62890625 C-106.00707187 219.73972211 -99.69200068 217.35617241 -91.75 217.00390625 C-84.5778658 217.09158515 -79.04624774 219.24855841 -73.25 223.44140625 C-67.55525889 229.63278175 -64.76414384 236.68644064 -65.00390625 245.078125 C-65.77460248 252.47925545 -68.5690052 258.55930134 -74.25 263.44140625 C-78.38595826 266.01854691 -83.02921719 268.66741336 -87.98242188 268.16333008 C-93.17669466 267.63786841 -96.82046786 267.51216448 -101.29296875 270.41943359 C-104.28689402 273.19943412 -107.03287829 276.08403649 -109.75 279.12890625 C-110.70517105 280.1494533 -111.66349272 281.16706102 -112.625 282.18164062 C-114.39397962 284.05591211 -116.1366283 285.94535883 -117.86914062 287.85424805 C-121.05540471 291.31659838 -124.40011624 294.60347398 -127.75 297.90625 C-128.9875 299.13021484 -128.9875 299.13021484 -130.25 300.37890625 C-131.075 301.19230469 -131.9 302.00570312 -132.75 302.84375 C-133.575 303.70097656 -134.4 304.55820312 -135.25 305.44140625 C-136.11492569 306.22520157 -136.97985138 307.00899689 -137.87098694 307.81654358 C-141.71397199 312.51232088 -140.90160037 318.26442664 -140.81420898 324.03686523 C-140.81550752 325.98225251 -140.81680928 327.92763978 -140.81823266 329.87302697 C-140.81498319 331.95634915 -140.79944448 334.03926057 -140.78045464 336.12249565 C-140.74170767 340.47267265 -140.74221186 344.82231026 -140.74879456 349.17262268 C-140.75899661 359.97650648 -140.71595052 370.78011009 -140.66589355 381.5838623 C-140.62767441 389.98385055 -140.6034593 398.38341078 -140.61978775 406.78349167 C-140.62660773 411.10401728 -140.60520686 415.42318363 -140.56210506 419.74348629 C-140.53644354 423.06792224 -140.5495901 426.39202934 -140.55639648 429.71655273 C-140.53632034 430.90690628 -140.5162442 432.09725983 -140.49555969 433.32368469 C-140.55076571 439.7778398 -141.09228314 443.622342 -145.766572 448.25985813 C-148.77523689 450.65625508 -151.02290194 450.58948052 -154.80126953 450.64672852 C-155.96232208 450.66667374 -157.12337463 450.68661896 -158.3196106 450.70716858 C-159.57796722 450.72388107 -160.83632385 450.74059357 -162.1328125 450.7578125 C-163.41735321 450.7785936 -164.70189392 450.79937469 -166.02536011 450.82078552 C-169.44149359 450.87599674 -172.85768745 450.92541013 -176.27392578 450.97363281 C-179.75949481 451.02385482 -183.24497609 451.07953722 -186.73046875 451.13476562 C-193.57023642 451.24233553 -200.41008334 451.34378309 -207.25 451.44140625 C-206.62461464 453.01615213 -205.99808746 454.59044458 -205.37109375 456.16455078 C-205.02232178 457.04128448 -204.6735498 457.91801819 -204.31420898 458.82131958 C-195.74468609 479.91951836 -183.83761923 499.22932916 -170.25 517.44140625 C-169.58943604 518.33085938 -169.58943604 518.33085938 -168.91552734 519.23828125 C-165.34621233 524.07362266 -165.34621233 524.07362266 -161.25 528.44140625 C-157.38393404 528.84049439 -157.38393404 528.84049439 -155.32714844 527.00439453 C-154.35310059 526.01802002 -154.35310059 526.01802002 -153.359375 525.01171875 C-152.65039062 524.29886719 -151.94140625 523.58601563 -151.2109375 522.8515625 C-150.48132813 522.09746094 -149.75171875 521.34335937 -149 520.56640625 C-148.25492187 519.82003906 -147.50984375 519.07367187 -146.7421875 518.3046875 C-142.81888764 514.92892893 -142.81888764 514.92892893 -141.25 510.44140625 C-140.66081787 510.18270752 -140.07163574 509.92400879 -139.46459961 509.6574707 C-137.07766951 508.34677741 -135.65014286 506.98758819 -133.81640625 504.984375 C-132.8409082 503.9315332 -132.8409082 503.9315332 -131.84570312 502.85742188 C-131.17474609 502.12201172 -130.50378906 501.38660156 -129.8125 500.62890625 C-128.5037542 499.20347389 -127.19246576 497.78037268 -125.87890625 496.359375 C-124.87992561 495.23230888 -124.87992561 495.23230888 -123.86076355 494.08247375 C-121.88460246 492.08337474 -120.23426439 490.66602123 -117.97810364 489.08720398 C-113.1406791 485.46041536 -109.0553826 481.73076054 -107.57494545 475.68433952 C-106.77551029 468.73319326 -107.06931854 461.78133711 -107.39331436 454.8056221 C-107.57364875 450.78101211 -107.66368519 446.76384375 -107.72409058 442.73617554 C-107.90137976 432.01718616 -108.20987084 421.30304949 -108.61695838 410.59036422 C-108.96023364 401.51288931 -109.20564895 392.43963157 -109.2578125 383.35546875 C-109.2641859 382.3515092 -109.2641859 382.3515092 -109.27068806 381.32726765 C-109.36561685 352.86132562 -109.36561685 352.86132562 -99.33493042 342.28842163 C-95.55481314 338.75099454 -91.45256391 335.8185621 -87.02410889 333.14227295 C-80.59856014 329.20262879 -75.32395133 323.6647749 -70.0625 318.31640625 C-69.5156958 317.76581543 -68.9688916 317.21522461 -68.40551758 316.64794922 C-66.68450493 314.91489808 -64.96682168 313.17860852 -63.25 311.44140625 C-60.98221143 309.14669651 -58.71090292 306.85555249 -56.4375 304.56640625 C-55.93516846 304.05577637 -55.43283691 303.54514648 -54.9152832 303.01904297 C-54.42116943 302.52162598 -53.92705566 302.02420898 -53.41796875 301.51171875 C-52.94970736 301.036117 -52.48144596 300.56051525 -51.99899483 300.07050133 C-50.25 298.44140625 -50.25 298.44140625 -48.2246685 296.9936924 C-45.10867267 294.6883859 -42.67937463 292.83765123 -41.51417923 289.04865646 C-41.24100302 286.18378725 -41.21716237 283.41390394 -41.28173828 280.53662109 C-41.27017448 278.92316551 -41.27017448 278.92316551 -41.25837708 277.27711487 C-41.24191193 273.73448883 -41.28122643 270.19475465 -41.3203125 266.65234375 C-41.3178708 264.18567255 -41.31162049 261.71900243 -41.30172729 259.25234985 C-41.28462758 252.76677964 -41.31348469 246.2822515 -41.35369873 239.79681396 C-41.40928521 229.40978788 -41.39039912 219.02255216 -41.38042831 208.63542557 C-41.38278481 205.00747697 -41.40172472 201.37992076 -41.42385864 197.75204468 C-41.43006117 195.53049776 -41.43608292 193.30895032 -41.44189453 191.08740234 C-41.4523027 190.07844406 -41.46271088 189.06948578 -41.47343445 188.029953 C-41.47722253 179.16694104 -41.47722253 179.16694104 -39.25 175.44140625 C-34.45405319 172.86797138 -29.39733226 172.9436558 -24.25 174.44140625 C-21.54447612 176.6396444 -19.80221667 178.33697292 -18.25 181.44140625 C-18.20066364 182.85441526 -18.21697082 184.26998953 -18.26673889 185.6829834 C-18.29452423 186.57371552 -18.32230957 187.46444763 -18.35093689 188.38217163 C-18.38602859 189.36271515 -18.4211203 190.34325867 -18.45727539 191.35351562 C-18.52337356 193.49307825 -18.58791936 195.63268924 -18.65113831 197.77233887 C-18.68500704 198.91327499 -18.71887577 200.05421112 -18.75377083 201.22972107 C-18.94786927 208.58021725 -19.03248112 215.93282989 -19.12383366 223.28520966 C-19.20973899 229.72505917 -19.34197959 236.15674635 -19.58374023 242.59277344 C-22.06357213 274.42689041 -22.06357213 274.42689041 -9.92558575 302.44849396 C-5.20232066 307.37333998 0.08503791 311.54696753 5.72167969 315.37266541 C13.28735326 320.54101496 19.58239457 327.15546101 25.9921875 333.65625 C27.73424568 335.41093569 29.47643696 337.16548925 31.21875 338.91992188 C33.93972207 341.66585926 36.6590597 344.41338006 39.37597656 347.16333008 C42.0145753 349.83194512 44.65920557 352.49446094 47.3046875 355.15625 C48.12234589 355.98736801 48.94000427 356.81848602 49.78244019 357.67478943 C50.53727692 358.43300491 51.29211365 359.1912204 52.06982422 359.97241211 C52.73408417 360.64412949 53.39834412 361.31584686 54.08273315 362.00791931 C55.6362911 363.65872108 55.6362911 363.65872108 57.75 363.44140625 C58.07097656 364.26898438 58.07097656 364.26898438 58.3984375 365.11328125 C60.20434984 368.22404355 62.69999454 370.34828732 65.375 372.69140625 C66.3899065 373.59032343 67.40288644 374.49141981 68.4140625 375.39453125 C68.93400284 375.84016922 69.45394318 376.28580719 69.98963928 376.74494934 C71.75 378.44140625 71.75 378.44140625 73.15354919 380.46025085 C75.49521935 383.54473905 77.72942497 385.9542018 81.61517334 386.89113998 C87.34344118 387.60436201 93.11295132 387.38347278 98.87109375 387.2578125 C100.74054573 387.24541581 102.61002315 387.23642956 104.47950745 387.23069763 C109.38061242 387.2059229 114.27982488 387.13225538 119.18023682 387.04901123 C123.1952928 386.98879069 127.21023577 386.9624781 131.22564602 386.93803501 C139.50156856 386.88752376 147.77746275 386.81521714 156.05249023 386.68188477 C156.82178864 386.67291168 157.59108704 386.6639386 158.38369751 386.6546936 C161.85940878 386.89913038 161.85940878 386.89913038 164.75 385.44140625 C172.04615479 332.69483962 158.05011337 276.33294031 126.75 233.44140625 C123.87699596 229.65108973 120.88966867 226.01298701 117.75 222.44140625 C116.92628906 221.49652344 116.10257812 220.55164063 115.25390625 219.578125 C110.38444357 214.10090594 105.38340859 209.11723725 99.75 204.44140625 C98.47962891 203.32185547 98.47962891 203.32185547 97.18359375 202.1796875 C85.60463077 192.14458625 72.80248619 184.34235645 59.3125 177.12890625 C58.43295654 176.64953613 57.55341309 176.17016602 56.6472168 175.67626953 C50.71898383 172.58565056 44.70324626 170.32821571 38.36303711 168.26489258 C37.53245537 167.99146278 36.70187363 167.71803299 35.84612274 167.43631744 C33.81511427 166.76820033 31.78269845 166.10436397 29.75 165.44140625 C29.09235518 175.38447614 28.59959263 185.32216622 28.29925919 195.28277969 C28.15483421 199.91295079 27.96052675 204.52798021 27.63769531 209.14941406 C25.75016957 233.12957752 25.75016957 233.12957752 35.82617188 254.05273438 C41.98124685 260.8290418 48.97020131 266.66111686 56.20636559 272.23965454 C62.04654413 276.78635581 67.21205974 281.83650997 72.19921875 287.28515625 C73.38793078 288.54489985 74.57875106 289.80265686 75.77148438 291.05859375 C77.61625047 293.00200649 79.44725499 294.95217928 81.24584961 296.93847656 C88.08224579 304.98025152 88.08224579 304.98025152 97.36791992 309.0168457 C100.79564151 308.79132338 100.79564151 308.79132338 103.92724609 308.01879883 C109.59434498 306.85959723 114.15548226 309.55215597 119 312.25390625 C124.37870595 316.53242235 127.87060026 321.13697595 129.26953125 327.984375 C130.12201489 335.6794607 129.59103414 342.10114565 125.26953125 348.703125 C120.82226054 354.20878508 115.93126025 357.21762276 109.1875 359.19140625 C99.85608032 360.14847494 92.18531726 358.32049431 84.75 352.44140625 C77.32183729 344.5887771 76.75 335.78300677 76.75 325.44140625 C75.25056282 323.67406623 75.25056282 323.67406623 73.19360352 322.13110352 C69.10789808 318.75553594 65.37142373 315.17737733 61.65234375 311.40625 C61.0143837 310.76450333 60.37642365 310.12275665 59.71913147 309.46156311 C57.706102 307.43645974 55.69638291 305.40812248 53.6875 303.37890625 C51.03293093 300.69753946 48.37492666 298.01964559 45.71484375 295.34375 C45.1198558 294.74046371 44.52486786 294.13717743 43.91184998 293.51560974 C41.12019807 290.70790021 38.30476886 288.03314957 35.25219727 285.51000977 C32.66224114 283.34828139 30.53972773 281.06946812 28.39599609 278.46630859 C25.89105916 275.49169051 23.49225223 273.50457919 20.18603516 271.46728516 C13.66461987 267.06717381 8.08862117 261.96307047 6.18101501 254.09440613 C3.82342284 239.70686751 4.68500136 224.75393814 5.05047607 210.2399292 C5.1752476 204.50810303 5.19622761 198.77593478 5.2265625 193.04296875 C5.30083145 181.83977434 5.48846592 170.64168707 5.75 159.44140625 C4.31264036 159.1151098 2.87485371 158.79069395 1.43688965 158.46707153 C0.63626854 158.28621065 -0.16435257 158.10534977 -0.98923492 157.91900826 C-3.60382607 157.36665808 -6.1816991 157.03575676 -8.84375 156.80859375 C-9.81183594 156.72480469 -10.77992188 156.64101562 -11.77734375 156.5546875 C-12.75832031 156.47605469 -13.73929688 156.39742187 -14.75 156.31640625 C-15.73097656 156.23003906 -16.71195313 156.14367187 -17.72265625 156.0546875 C-50.49456558 153.30551268 -84.72747482 160.02545761 -114.25 174.44140625 Z M-37.5 321.12890625 C-38.24564209 321.83136475 -38.99128418 322.53382324 -39.75952148 323.25756836 C-46.961317 330.08658941 -53.97195783 337.10247391 -60.94042969 344.16870117 C-65.21326699 348.48479416 -69.50830357 352.67468294 -74.16577148 356.57592773 C-74.85356689 357.19153564 -75.5413623 357.80714355 -76.25 358.44140625 C-76.82140087 358.87476414 -77.39280174 359.30812202 -77.98151779 359.75461197 C-80.89239312 362.20254748 -82.97489141 364.10741143 -83.7607584 367.91806126 C-83.7964548 370.9205134 -83.60997948 373.83450367 -83.34301758 376.82543945 C-83.20114297 379.17091948 -83.05987577 381.51643631 -82.91912842 383.86198425 C-82.83160057 385.10289511 -82.74407272 386.34380596 -82.65389252 387.62232018 C-82.20740225 394.28429444 -81.94606831 400.95430381 -81.68188477 407.62548828 C-81.65389038 408.31984415 -81.62589599 409.01420002 -81.59705329 409.72959697 C-78.39022738 490.09187878 -78.39022738 490.09187878 -98.75028992 512.47169495 C-108.52388491 522.5930082 -120.19556035 531.13258219 -132.35853577 538.13711548 C-132.98271896 538.56753143 -133.60690216 538.99794739 -134.25 539.44140625 C-134.25 540.10140625 -134.25 540.76140625 -134.25 541.44140625 C-134.806875 541.64765625 -135.36375 541.85390625 -135.9375 542.06640625 C-138.2032682 543.41361978 -139.26384533 544.50994459 -140.89453125 546.52734375 C-141.67183594 547.48898437 -142.44914063 548.450625 -143.25 549.44140625 C-140.92104031 551.79993281 -138.5860189 554.15237299 -136.25 556.50390625 C-135.60160156 557.16068359 -134.95320312 557.81746094 -134.28515625 558.49414062 C-129.77704704 563.02456721 -125.11736425 567.3005589 -120.25 571.44140625 C-119.29335449 572.25798706 -119.29335449 572.25798706 -118.31738281 573.09106445 C-97.47661466 590.75206372 -75.21188486 606.04829366 -50.8125 618.44140625 C-50.16265137 618.77374268 -49.51280273 619.1060791 -48.84326172 619.44848633 C-47.34361151 620.18100302 -45.79991571 620.82229984 -44.25 621.44140625 C-43.59 621.11140625 -42.93 620.78140625 -42.25 620.44140625 C-42.06313331 594.48568489 -41.92205181 568.53006431 -41.83550262 542.57380581 C-41.79424841 530.52187555 -41.7380027 518.4703632 -41.64648438 506.41870117 C-41.56675651 495.91467021 -41.51513649 485.41094188 -41.49729204 474.90661675 C-41.48686059 469.34426382 -41.46233994 463.78277669 -41.40415955 458.22070122 C-41.34983325 452.98462812 -41.33311233 447.74977687 -41.34513855 442.51344872 C-41.34293873 440.59254057 -41.32703832 438.67159132 -41.2963562 436.75092697 C-40.76848919 426.84738737 -40.76848919 426.84738737 -44.00636292 417.85682869 C-46.06631923 415.97885846 -46.06631923 415.97885846 -48.29389191 414.70820713 C-52.11668528 412.23251674 -53.58911211 407.70092836 -54.828125 403.46484375 C-56.66992422 394.63102899 -54.08197472 388.23397886 -49.625 380.69140625 C-44.33075102 375.67580196 -37.29575488 372.75872036 -30.0625 372.19140625 C-23.05848015 372.65068624 -16.66286321 374.88968036 -11.25 379.44140625 C-6.17284996 385.7737406 -3.89971175 392.28575471 -4.3125 400.37890625 C-5.02905608 405.74072243 -6.89213331 410.19513537 -10.25 414.44140625 C-11.43393818 415.31531722 -12.61953089 416.18698875 -13.80627537 417.05708504 C-16.801128 419.61309139 -17.2077245 420.25109916 -18.1113348 424.31878471 C-18.14052353 425.81014199 -18.13154552 427.30255787 -18.09178162 428.79367065 C-18.09776259 429.61959123 -18.10374356 430.4455118 -18.10990578 431.29646027 C-18.12141219 434.05664116 -18.08298471 436.81382542 -18.04467773 439.57373047 C-18.04270269 441.55488515 -18.04381258 443.53604495 -18.04777527 445.51719666 C-18.04978367 450.89108624 -18.00863018 456.26388207 -17.95975757 461.63751745 C-17.91599746 467.25488076 -17.91188636 472.87226916 -17.90357971 478.48977661 C-17.88182318 489.12523361 -17.82437998 499.76018691 -17.75413328 510.3954221 C-17.67589064 522.50408671 -17.63740345 534.61277538 -17.60226524 546.72162986 C-17.52909777 571.62850124 -17.40597351 596.53492552 -17.25 621.44140625 C-15.92996633 620.87448185 -15.92996633 620.87448185 -14.5832653 620.29610443 C-13.38547007 619.78214363 -12.18767483 619.26818283 -10.95358276 618.73864746 C-10.31795815 618.46383466 -9.68233354 618.18902186 -9.02744758 617.9058814 C-6.08480309 616.63724198 -3.14358712 615.40003781 -0.15631485 614.23872375 C11.29594535 609.88128665 11.29594535 609.88128665 18.88010406 600.86593628 C20.6470243 593.1702071 20.02637598 585.35748097 19.6328125 577.53515625 C19.58807557 575.00289388 19.55431225 572.4704162 19.53097534 569.93786621 C19.45620691 563.96653251 19.29621318 558.0042489 19.08582199 552.03668165 C18.68762787 540.73118486 18.43208386 529.42507563 18.27187729 518.11360168 C18.19666704 514.41428105 18.04715029 510.72335364 17.8899231 507.0267334 C17.35641741 488.79695619 17.35641741 488.79695619 22.43775368 482.84318256 C24.75732747 480.55634983 27.24452075 478.52274289 29.75 476.44140625 C31.50434501 474.18595871 31.50434501 474.18595871 32.83105469 471.88208008 C40.42042569 459.36910363 50.38295992 446.28069189 64.75 441.44140625 C92.25852572 434.88624463 123.78971891 438.64059062 151.75 440.44140625 C152.90520791 436.9235799 154.04745345 433.4016724 155.1875 429.87890625 C155.51298828 428.88826172 155.83847656 427.89761719 156.17382812 426.87695312 C156.48642578 425.90693359 156.79902344 424.93691406 157.12109375 423.9375 C157.5531311 422.60996704 157.5531311 422.60996704 157.99389648 421.25561523 C158.86731941 418.00474468 159.3290473 414.77831458 159.75 411.44140625 C158.64325424 411.46218735 157.53650848 411.48296844 156.39622498 411.50437927 C145.90824274 411.69134525 135.42204166 411.79770148 124.93240261 411.8274374 C119.5405058 411.84525156 114.15185457 411.89033124 108.76098633 412.00024414 C103.54682083 412.10550931 98.33686093 412.13585799 93.12172127 412.1167469 C91.14382377 412.12218702 89.16580375 412.15352305 87.18877983 412.21255302 C70.88721796 412.67211651 70.88721796 412.67211651 64.15921021 406.98880005 C60.83654159 403.81132438 57.84193256 400.41522588 55.01486301 396.79164219 C54.59745822 396.34606433 54.18005342 395.90048647 53.75 395.44140625 C53.09 395.44140625 52.43 395.44140625 51.75 395.44140625 C51.49174438 394.84549683 51.23348877 394.2495874 50.96740723 393.63562012 C49.64502091 391.25219546 48.3740174 390.04872799 46.27148438 388.33398438 C41.02796102 383.89116997 36.24145282 379.03907048 31.40625 374.16015625 C30.42823581 373.17772247 29.44991749 372.19559137 28.47131348 371.21374512 C24.87501016 367.60421307 21.28423404 363.98919919 17.69329834 360.37432861 C14.64644421 357.30759875 11.59744874 354.24302711 8.54570007 351.1811676 C7.13241371 349.76149468 5.72222889 348.33873626 4.31213379 346.91589355 C-0.17388161 342.41293342 -4.71566182 338.06532453 -9.53994751 333.92660522 C-11.77288959 331.98727102 -13.85991258 329.92807769 -15.93359375 327.8203125 C-16.71541016 327.03076172 -17.49722656 326.24121094 -18.30273438 325.42773438 C-19.08970703 324.62787109 -19.87667969 323.82800781 -20.6875 323.00390625 C-22.28809217 321.37796821 -23.89083187 319.75414038 -25.49609375 318.1328125 C-26.19404053 317.42326416 -26.8919873 316.71371582 -27.61108398 315.98266602 C-31.26558255 312.54592395 -34.62599925 318.41173345 -37.5 321.12890625 Z M49.47036743 482.80502319 C31.97044735 509.31438212 40.58706923 555.4336957 42.75 585.44140625 C56.6264691 577.2602549 68.20238088 565.06235491 79.5625 553.75390625 C80.62041748 552.70299805 80.62041748 552.70299805 81.69970703 551.63085938 C103.79522266 529.46758208 121.81668165 503.53407848 136.4375 475.94140625 C136.8720752 475.12172363 137.30665039 474.30204102 137.75439453 473.45751953 C139.95494412 469.64048648 139.95494412 469.64048648 140.75 465.44140625 C90.60101022 459.3615301 90.60101022 459.3615301 49.47036743 482.80502319 Z " fill="#3AC588" transform="translate(371.25,10.55859375)"/>
</svg>
