<?xml version="1.0"?><svg data-name="Layer 1" id="Layer_1" viewBox="0 0 24 24" xmlns="http://www.w3.org/2000/svg"><defs><style>.cls-1,.cls-2{fill:none;stroke:#fff;stroke-linecap:round;stroke-linejoin:round;}.cls-1{fill-rule:evenodd;}</style></defs><title/><path class="cls-1" d="M9.316,6.5H5.289A1.9,1.9,0,0,0,3.5,8.5v9a1.9,1.9,0,0,0,1.789,2H18.711a1.9,1.9,0,0,0,1.789-2v-9a1.9,1.9,0,0,0-1.789-2H14.684"/><path class="cls-2" d="M13.5,7.636V4.364c0-.485-3-.485-3,0V7.636C10.5,8.121,13.5,8.121,13.5,7.636Z"/><path class="cls-2" d="M8.408,17.367a3.442,3.442,0,0,1,.352-1.316,1.534,1.534,0,0,1,.926-.806,8.165,8.165,0,0,1,1.381-.284,2.268,2.268,0,1,1,1.885,0,8.247,8.247,0,0,1,1.364.282,1.536,1.536,0,0,1,.924.806,3.438,3.438,0,0,1,.352,1.316"/></svg>