<?xml version="1.0"?><svg enable-background="new -197.694 59.029 458.737 450.755" id="Layer_1" version="1.1" viewBox="-197.694 59.029 458.737 450.755" xml:space="preserve" xmlns="http://www.w3.org/2000/svg" xmlns:xlink="http://www.w3.org/1999/xlink"><g id="Layer_1_1_"/><path d="M260.842,281.327c-0.044-1.26-0.081-2.521-0.12-3.783c-0.16-5.331-0.327-10.842-0.896-16.522  c-0.004-0.044-0.009-0.089-0.014-0.134c-0.806-7.086-1.748-13.332-2.882-19.094l-0.091-0.461c-1.187-6.034-2.414-12.274-4.181-18.43  c-1.81-6.302-4.114-12.29-6.344-18.08l-0.084-0.219c-2.011-5.224-4.514-11.726-7.531-17.875c-2.216-4.519-4.793-8.671-7.285-12.687  c-0.834-1.343-1.67-2.688-2.489-4.046c-2.895-4.795-6.218-9.738-10.774-16.024c-0.771-1.066-1.538-2.139-2.306-3.214  c-2.867-4.016-5.832-8.168-9.273-12.204c-0.068-0.08-0.139-0.159-0.209-0.237c-1.331-1.464-2.623-2.912-3.896-4.338  c-3.574-4.005-6.951-7.788-10.693-11.439c-5.071-4.95-10.312-9.236-15.859-13.774l-0.59-0.483c-0.063-0.052-0.128-0.104-0.193-0.154  c-4.196-3.263-8.658-6.387-14.045-9.833c-1.496-0.957-2.991-1.901-4.485-2.844c-3.11-1.964-6.049-3.819-9.024-5.803  c-0.287-0.192-0.585-0.369-0.891-0.53l-0.295-0.155c-4.632-2.437-9.421-4.958-14.291-7.235c-4.748-2.22-9.822-4.563-15.076-6.65  c-4.183-1.662-9.733-3.808-15.581-5.675c-5.163-1.648-10.342-2.915-16.09-4.283c-0.759-0.181-1.536-0.272-2.315-0.272  c-0.412,0-1.024-0.024-1.637-0.045c-0.295-0.01-0.59-0.02-0.874-0.029c-6.866-1.826-13.514-2.535-19.954-3.222l-1.389-0.149  c-2.205-0.237-4.409-0.455-6.612-0.672c-4.888-0.482-9.504-0.938-14.152-1.602c-2.863-0.409-5.771,0.445-7.959,2.34  c-0.955,0.043-1.905,0.088-2.85,0.132l-3.359,0.152c-4.82,0.212-9.805,0.432-14.822,0.961C8.34,62.828,7.25,62.938,6.16,63.048  c-4.75,0.48-9.662,0.977-14.606,1.855c-5.332,0.947-11.611,2.134-17.758,3.764c-5.115,1.356-10.475,3.102-17.29,5.627  c-5.231,1.883-10.186,4.126-14.978,6.295l-1.92,0.868c-4.948,2.23-10.776,4.933-16.485,8.068  c-5.683,3.121-11.191,6.743-15.616,9.651l-2.164,1.417c-4.281,2.798-8.707,5.691-12.965,9.006c-5.01,3.9-9.622,8.07-13.916,12.006  c-4.722,4.328-9,8.834-12.92,13.058l-0.326,0.351c-3.945,4.251-8.023,8.647-11.806,13.452c-2.898,3.682-5.356,7.501-7.734,11.195  c-0.859,1.334-1.719,2.67-2.597,3.994c-0.73,1.1-1.471,2.196-2.212,3.293c-2.599,3.846-5.286,7.823-7.691,12.17  c-0.067,0.122-0.132,0.245-0.194,0.37c-1.426,2.851-2.838,5.456-4.333,8.212c-1.507,2.78-3.066,5.654-4.641,8.803  c-1.103,2.206-1.541,4.417-1.861,6.031c-0.077,0.391-0.188,0.953-0.264,1.245c-2.56,5.211-4.942,10.775-7.278,16.999  c-1.907,5.082-3.219,10.116-4.487,14.984c-0.259,0.995-0.518,1.988-0.782,2.982c-1.83,6.891-3.103,12.69-4.007,18.251  c-0.914,5.613-1.554,11.511-2.013,18.56c-0.105,1.615-0.239,3.228-0.372,4.841c-0.366,4.431-0.744,9.012-0.611,13.807  c0.191,6.894,0.606,12.982,1.268,18.616c0.765,6.515,2.021,12.887,3.139,18.349l0.301,1.472c1.106,5.42,2.25,11.025,3.885,16.634  c1.323,4.538,3.007,8.82,4.637,12.962c0.583,1.483,1.168,2.968,1.732,4.459c0.579,1.53,1.137,3.073,1.696,4.618  c1.493,4.124,3.037,8.389,5.023,12.639c1.846,3.951,4,7.559,6.082,11.048c1.047,1.753,2.036,3.41,2.971,5.081  c3.152,5.634,6.648,10.957,9.734,15.653c2.966,4.516,6.538,9.84,10.539,15.092c0.271,0.355,0.567,0.693,0.883,1.011  c1.049,1.049,2.004,1.728,2.671,2.172c0.575,0.764,1.146,1.528,1.716,2.292c2.905,3.893,5.909,7.919,9.36,11.678  c3.597,3.918,7.41,7.319,11.098,10.609c0.936,0.834,1.869,1.666,2.795,2.504c5.051,4.571,9.831,8.556,14.61,12.179  c4.613,3.498,9.699,7.029,15.55,10.795c0.946,0.608,1.892,1.221,2.838,1.835c3.974,2.577,8.077,5.238,12.459,7.71  c1.907,1.324,4.17,1.988,6.74,1.951c6.083,4.005,12.922,8.036,20.939,8.036c4.365,0,9.504-0.452,14.598-3.777  c7.469-4.631,7.916-12.728,8.157-17.097c0.041-0.741,0.097-1.747,0.176-2.444c0.372-0.6,0.664-1.149,0.903-1.602  c0.034-0.064,0.067-0.129,0.102-0.193c0.788-0.951,1.395-2.042,1.787-3.219c1.115-3.346,1.877-6.344,2.614-9.242  c0.678-2.67,1.319-5.191,2.204-7.846c0.34-1.02,0.513-2.087,0.513-3.162c0-0.396,0.065-1.041,0.141-1.789  c0.065-0.641,0.137-1.354,0.195-2.153c1.642-1.826,3.874-4.782,3.874-9.071c0-0.775,0.725-2.853,1.206-4.227  c0.202-0.579,0.403-1.156,0.594-1.729c0.081-0.242,0.152-0.488,0.215-0.736c0.793-3.175,1.952-6.346,3.178-9.703  c0.8-2.19,1.627-4.455,2.375-6.792c0.748-2.339,1.42-4.659,2.069-6.903c1.009-3.486,1.962-6.779,3.122-9.906  c2.199-5.929,4.192-11.275,6.326-16.677c0.999-2.53,2.082-5.047,3.229-7.712c1.17-2.719,2.377-5.525,3.525-8.426  c0.197-0.348,0.496-0.84,0.768-1.288c0.662-1.09,1.464-2.408,2.219-3.907c0.059-0.065,0.119-0.132,0.177-0.199  c0.281-0.227,0.552-0.469,0.813-0.729c1.953-1.953,2.929-4.512,2.929-7.071c0-2.488-0.923-4.977-2.769-6.907  c-0.295-0.618-0.636-2.307-0.866-3.443c-0.648-3.209-1.455-7.203-4.169-10.822c-0.284-0.378-0.594-0.736-0.929-1.07  c-2.581-2.582-5.217-4.817-7.767-6.979c-2.649-2.246-5.151-4.368-7.16-6.534c-3.977-4.29-5.93-8.041-6.52-12.464  c-0.543-4.343-0.827-9.175-0.869-14.772l-0.018-1.842c-0.046-4.393-0.09-8.541,0.599-12.218c0.672-3.581,2.497-7.479,4.428-11.606  l0.271-0.579c1.725-3.012,4.238-5.939,7.676-8.939l0.854-0.747c3.374-2.952,6.564-5.743,9.738-7.544  c5.861-2.892,12.001-4.229,19.792-4.302c6.103,0.872,11.408,1.677,16.483,4.53c3.256,2.044,6.438,4.301,9.996,7.091  c2.574,2.018,5.544,4.475,8.18,7.481c4.454,6.266,6.742,10.297,7.469,15.569c0.16,3.252-0.314,6.833-0.816,10.617  c-0.145,1.084-0.288,2.166-0.418,3.247c-0.545,4.518-1.201,9.283-2.688,13.54c-1.228,3.517-2.849,6.94-4.933,10.413  c-0.792,0.478-1.763,1.161-2.756,2.154c-0.76,0.76-1.393,1.638-1.873,2.6c-1.42,2.839-4.435,5.162-8.229,7.903  c-4.775,3.451-9.784,7.217-13.982,11.967c-1.266,1.349-4.776,5.551-4.776,10.669c0,0.369,0.021,0.737,0.062,1.104  c0.655,5.898,2.104,11.35,3.505,16.623c0.233,0.876,0.466,1.754,0.695,2.633c0.538,2.066,1.02,4.174,1.527,6.405  c0.876,3.842,1.782,7.813,3.061,11.855c0.805,2.542,1.688,5.027,2.542,7.431c1.143,3.217,2.225,6.26,3.086,9.309l0.003,0.016  c1.52,7.087,2.954,13.78,4.908,20.55c1.131,3.917,2.249,7.857,3.398,11.904c0.745,2.625,1.503,5.296,2.285,8.032  c0.17,0.595,0.395,1.172,0.671,1.725c0.835,1.671,1.885,2.979,2.715,3.972c0.571,6.391,3.17,11.779,5.495,16.598  c0.687,1.424,1.34,2.778,1.94,4.143c2.1,7.116,5.336,14.456,9.882,22.412c0.114,0.199,0.234,0.395,0.362,0.585  c1.95,2.926,4.281,5.152,6.976,6.67c0.096,0.099,0.194,0.195,0.294,0.291c1.666,2.106,3.969,3.376,6.107,3.908  c0.79,0.196,1.601,0.296,2.415,0.296c0.529,0,1.345,0.059,2.207,0.121c1.295,0.094,2.719,0.196,4.221,0.196  c2.199,0,4.566-0.221,6.943-1.013c5.698-1.898,11.061-4.149,16.011-6.301c5.613-2.442,10.929-5.271,15.388-7.717  c4.424-2.426,9.636-5.366,14.752-8.772c4.138-2.757,8.068-5.826,11.87-8.794l1.721-1.341c2.003-1.503,3.836-2.91,5.67-4.317  c1.8-1.381,3.6-2.762,5.568-4.238c0.174-0.13,0.343-0.267,0.508-0.407c3.477-2.98,6.529-6.146,9.481-9.207  c1.246-1.292,2.488-2.581,3.751-3.84c4.044-4.028,8.161-8.496,12.585-13.657c0.9-1.05,1.81-2.092,2.717-3.132  c3.082-3.53,6.268-7.182,9.179-11.204c3.204-4.427,5.921-8.985,8.549-13.394l1.426-2.388c0.9-1.5,1.834-2.981,2.767-4.464  c2.311-3.671,4.7-7.467,6.735-11.666c2.571-5.305,5.046-11.114,7.355-17.267c1.831-4.878,3.123-9.773,4.372-14.507  c0.308-1.166,0.615-2.333,0.931-3.497c1.48-5.463,2.731-11.287,3.935-18.331c1.058-6.194,1.824-12.408,2.278-18.472  c0.615-6.207,0.817-12.246,1.014-18.089l0.07-2.091C261.109,295.299,261.094,288.642,260.842,281.327z M240.901,300.99l-0.071,2.11  c-0.194,5.812-0.378,11.301-0.938,16.892c-0.009,0.086-0.017,0.171-0.022,0.257c-0.406,5.475-1.098,11.098-2.058,16.714  c-1.094,6.4-2.213,11.633-3.522,16.465c-0.327,1.207-0.646,2.417-0.966,3.627c-1.175,4.449-2.283,8.651-3.759,12.582  c-2.094,5.579-4.324,10.818-6.629,15.572c-1.553,3.204-3.55,6.377-5.663,9.735c-1.009,1.602-2.017,3.205-2.989,4.825l-1.458,2.44  c-2.514,4.218-4.888,8.201-7.569,11.906c-2.378,3.285-5.131,6.44-8.046,9.781c-0.946,1.083-1.893,2.168-2.831,3.263  c-4.081,4.761-7.849,8.853-11.518,12.508c-1.357,1.352-2.693,2.736-4.032,4.124c-2.671,2.77-5.197,5.39-7.865,7.702  c-1.925,1.447-3.698,2.808-5.471,4.168c-1.8,1.381-3.6,2.762-5.568,4.238c-0.047,0.035-0.093,0.07-0.14,0.106l-1.814,1.415  c-3.672,2.866-7.14,5.573-10.65,7.912c-4.485,2.987-9.231,5.661-13.282,7.883c-4.063,2.229-8.874,4.792-13.745,6.911  c-4.432,1.926-9.193,3.93-14.048,5.564c-1.757-1.454-3.996-2.296-6.374-2.296c-3.757-6.627-6.368-12.598-7.98-18.24  c-0.116-0.406-0.258-0.804-0.424-1.192c-0.839-1.958-1.706-3.755-2.544-5.492c-2.024-4.196-3.623-7.51-3.623-10.471  c0-4.87-2.823-8.224-4.34-10.025c-0.048-0.057-0.1-0.118-0.151-0.181c-0.621-2.177-1.228-4.314-1.826-6.423  c-1.157-4.075-2.283-8.043-3.423-11.988c-1.76-6.098-3.123-12.459-4.566-19.193l-0.068-0.32c-0.042-0.196-0.09-0.391-0.144-0.584  c-1.063-3.819-2.347-7.433-3.589-10.927c-0.833-2.345-1.62-4.561-2.319-6.768c-1.029-3.255-1.806-6.661-2.628-10.268  c-0.52-2.28-1.058-4.639-1.674-7.004c-0.237-0.91-0.479-1.817-0.72-2.725c-0.981-3.693-1.921-7.229-2.522-10.684  c2.79-2.965,6.507-5.735,10.1-8.332c4.874-3.521,9.529-7.159,12.926-12.546c0.759-0.472,1.664-1.128,2.588-2.052  c0.505-0.506,0.954-1.063,1.341-1.664c3.442-5.355,6.169-10.883,8.105-16.428c2.145-6.144,3.014-12.376,3.66-17.734  c0.121-1.002,0.255-2.007,0.389-3.014c0.592-4.464,1.264-9.524,0.934-14.803c-0.013-0.206-0.032-0.412-0.058-0.617  c-1.331-10.647-6.128-18.09-11.349-25.4c-0.172-0.24-0.354-0.473-0.546-0.697c-3.86-4.502-8.069-7.989-11.302-10.523  c-4.193-3.287-7.979-5.962-11.912-8.42c-0.111-0.069-0.224-0.137-0.338-0.202c-8.555-4.888-16.844-6.072-24.157-7.116l-0.309-0.044  c-0.469-0.067-0.94-0.101-1.414-0.101c-11.32,0-20.733,2.071-29.625,6.517c-0.129,0.065-0.257,0.132-0.384,0.203  c-5.093,2.829-9.494,6.681-13.378,10.079l-0.835,0.73c-5.315,4.639-9.294,9.405-12.165,14.571c-0.114,0.205-0.22,0.414-0.319,0.626  l-0.425,0.909c-2.376,5.075-4.833,10.323-5.973,16.4c-1.051,5.61-0.995,10.951-0.939,16.116l0.017,1.779  c0.047,6.385,0.381,11.979,1.032,17.185c1.52,11.403,7.399,18.874,11.689,23.5c2.825,3.047,5.91,5.662,8.893,8.191  c1.974,1.673,3.855,3.269,5.594,4.924c0.203,0.681,0.436,1.833,0.601,2.652c0.333,1.647,0.718,3.554,1.386,5.535  c-0.398,0.766-0.923,1.63-1.377,2.377c-0.589,0.968-1.197,1.97-1.72,3.016c-0.135,0.27-0.258,0.547-0.368,0.828  c-1.089,2.783-2.307,5.614-3.485,8.352c-1.155,2.684-2.348,5.459-3.458,8.27c-2.205,5.582-4.237,11.032-6.476,17.068  c-1.415,3.816-2.516,7.621-3.582,11.301c-0.64,2.21-1.244,4.297-1.907,6.37c-0.624,1.95-1.347,3.929-2.112,6.023  c-1.307,3.577-2.656,7.272-3.693,11.311c-0.127,0.374-0.258,0.749-0.39,1.126c-0.76,2.177-1.657,4.746-2.08,7.607  c-1.651,1.813-4.003,4.813-4.003,9.214c0,1.147-0.102,2.152-0.209,3.216c-0.063,0.63-0.132,1.308-0.18,2.029  c-0.878,2.795-1.53,5.358-2.163,7.849c-0.551,2.169-1.078,4.24-1.73,6.364c-0.448,0.696-0.786,1.335-1.059,1.849  c-0.034,0.064-0.068,0.129-0.102,0.193c-0.663,0.8-1.198,1.699-1.585,2.667c-1.357,3.394-1.543,6.752-1.692,9.451  c-0.03,0.535-0.067,1.214-0.118,1.809c-0.618,0.118-1.469,0.169-2.668,0.169c-2.828,0-7.366-3.018-11.763-5.95  c-2.083-1.619-4.616-2.388-7.544-2.291c-3.321-1.938-6.557-4.036-9.95-6.236c-0.968-0.628-1.935-1.255-2.899-1.875  c-5.413-3.483-10.086-6.726-14.288-9.911c-4.315-3.271-8.657-6.893-13.273-11.07c-0.961-0.87-1.931-1.735-2.903-2.602  c-3.474-3.099-6.755-6.026-9.678-9.209c-2.764-3.011-5.339-6.461-8.065-10.114c-0.858-1.15-1.719-2.304-2.593-3.454  c-0.273-0.359-0.571-0.7-0.891-1.021c-1.048-1.048-2.002-1.727-2.669-2.171c-3.332-4.447-6.388-9.012-8.968-12.939  c-2.902-4.418-6.192-9.426-8.997-14.438c-1.072-1.915-2.18-3.771-3.251-5.566c-1.912-3.203-3.717-6.228-5.136-9.264  c-1.605-3.437-2.932-7.101-4.336-10.979c-0.592-1.636-1.184-3.269-1.796-4.889c-0.595-1.573-1.211-3.139-1.827-4.703  c-1.532-3.896-2.979-7.574-4.047-11.235c-1.404-4.818-2.417-9.783-3.49-15.038l-0.303-1.483c-1.035-5.058-2.196-10.934-2.869-16.669  c-0.591-5.038-0.964-10.546-1.139-16.837c-0.102-3.694,0.215-7.539,0.551-11.609c0.143-1.727,0.284-3.454,0.397-5.184  c0.417-6.394,0.987-11.685,1.796-16.651c0.796-4.9,1.939-10.089,3.596-16.328c0.272-1.023,0.539-2.048,0.806-3.074  c1.192-4.574,2.317-8.893,3.858-12.999c2.135-5.687,4.294-10.726,6.576-15.354c1.103-2.206,1.541-4.417,1.861-6.031  c0.076-0.386,0.186-0.941,0.262-1.235c1.381-2.749,2.752-5.278,4.202-7.95c1.476-2.722,3.001-5.535,4.542-8.607  c1.954-3.507,4.245-6.898,6.667-10.483c0.771-1.142,1.542-2.282,2.303-3.429c0.931-1.402,1.841-2.816,2.751-4.229  c2.222-3.453,4.321-6.713,6.632-9.648c3.28-4.167,6.909-8.078,10.751-12.219l0.326-0.352c3.633-3.916,7.575-8.07,11.773-11.918  c3.994-3.661,8.264-7.524,12.688-10.968c3.606-2.808,7.5-5.353,11.622-8.047l2.207-1.445c5.252-3.453,9.637-6.297,14.257-8.833  c5.1-2.801,10.483-5.295,15.077-7.366l1.949-0.881c4.64-2.1,9.022-4.083,13.592-5.729c6.282-2.327,11.079-3.895,15.554-5.081  c5.421-1.437,10.956-2.485,16.13-3.404c4.206-0.747,8.536-1.185,13.12-1.648c1.118-0.113,2.235-0.226,3.354-0.344  c4.411-0.465,8.877-0.662,13.606-0.87l3.41-0.154C34.22,81.314,39.583,81.064,45,81.064c1.229,0,2.415-0.224,3.516-0.637  c0.7,0.069,1.397,0.138,2.092,0.207c2.146,0.211,4.291,0.423,6.437,0.654l1.407,0.151c6.276,0.669,12.205,1.302,17.872,2.921  c0.894,0.255,1.818,0.385,2.747,0.385c0.412,0,1.024,0.024,1.637,0.045c0.358,0.013,0.718,0.024,1.057,0.034  c5.077,1.213,9.375,2.283,13.596,3.631c5.266,1.681,10.398,3.667,14.279,5.208c4.744,1.885,9.512,4.087,13.989,6.181  c4.394,2.054,8.718,4.327,13.289,6.733c3.037,2.016,6.069,3.93,9.007,5.785c1.462,0.923,2.924,1.846,4.386,2.781  c4.815,3.081,8.774,5.847,12.449,8.7l0.492,0.403c5.199,4.252,10.109,8.269,14.553,12.606c3.25,3.172,6.404,6.705,9.743,10.446  c1.277,1.431,2.574,2.883,3.907,4.351c2.843,3.347,5.404,6.935,8.114,10.731c0.795,1.113,1.588,2.224,2.389,3.328  c4.216,5.817,7.253,10.328,9.847,14.625c0.862,1.428,1.741,2.844,2.618,4.258c2.337,3.764,4.544,7.319,6.321,10.946  c2.436,4.962,4.447,10.079,6.824,16.252l0.084,0.219c2.169,5.635,4.218,10.957,5.784,16.413c1.531,5.336,2.624,10.891,3.78,16.771  l0.091,0.462c1.024,5.209,1.884,10.91,2.626,17.426c0.493,4.965,0.642,9.873,0.799,15.067c0.039,1.292,0.078,2.581,0.122,3.868  C241.09,288.867,241.105,295.074,240.901,300.99z"/></svg>